<svg width="30" height="30" viewBox="0 0 30 30" fill="none" xmlns="http://www.w3.org/2000/svg">
<rect width="30" height="30" fill="black"/>
<path d="M15.8984 15.0735L12.2414 11.4165C12.1683 11.3499 12.1093 11.2694 12.0679 11.1796C12.0265 11.0898 12.0036 10.9927 12.0004 10.8939C11.9972 10.7951 12.0139 10.6966 12.0494 10.6044C12.0849 10.5122 12.1386 10.428 12.2073 10.3569C12.2759 10.2857 12.3581 10.2291 12.4491 10.1903C12.54 10.1515 12.6378 10.1314 12.7366 10.1311C12.8355 10.1308 12.9334 10.1503 13.0246 10.1885C13.1157 10.2267 13.1983 10.2828 13.2674 10.3535L13.2854 10.3715L17.4654 14.5505C17.604 14.689 17.6818 14.877 17.6818 15.073C17.6818 15.2689 17.604 15.4569 17.4654 15.5955L13.2864 19.7745C13.219 19.8443 13.1385 19.9001 13.0495 19.9388C12.9605 19.9775 12.8647 19.9982 12.7677 19.9999C12.6706 20.0016 12.5742 19.9841 12.4839 19.9485C12.3936 19.9129 12.3112 19.8599 12.2414 19.7925C12.1716 19.725 12.1158 19.6445 12.0771 19.5555C12.0384 19.4665 12.0177 19.3707 12.016 19.2737C12.0143 19.1767 12.0318 19.0802 12.0674 18.9899C12.103 18.8997 12.156 18.8173 12.2234 18.7475L12.2414 18.7295L15.8984 15.0735Z" fill="white" stroke="white" stroke-width="0.5"/>
</svg>
