<svg width="8" height="12" viewBox="0 0 8 12" fill="none" xmlns="http://www.w3.org/2000/svg">
<path d="M5.11674 6.00803L1.25495 2.30246C1.17777 2.23502 1.11547 2.15341 1.07175 2.06245C1.02803 1.9715 1.00377 1.87305 1.0004 1.77294C0.997042 1.67282 1.01465 1.57308 1.05217 1.47961C1.0897 1.38615 1.14639 1.30085 1.21888 1.22878C1.29138 1.15671 1.3782 1.09933 1.47422 1.06003C1.57024 1.02074 1.6735 1.00032 1.77789 1C1.88227 0.999684 1.98566 1.01946 2.08194 1.05817C2.17822 1.09687 2.26543 1.15372 2.3384 1.22534L2.35741 1.24358L6.77149 5.47809C6.9178 5.61851 7 5.80895 7 6.00753C7 6.2061 6.9178 6.39654 6.77149 6.53697L2.35847 10.7715C2.28726 10.8422 2.20223 10.8988 2.10823 10.938C2.01423 10.9772 1.91311 10.9982 1.81064 10.9999C1.70817 11.0016 1.60636 10.9839 1.51101 10.9478C1.41566 10.9118 1.32865 10.858 1.25495 10.7897C1.18124 10.7214 1.12228 10.6398 1.08144 10.5496C1.04059 10.4594 1.01866 10.3624 1.0169 10.264C1.01513 10.1657 1.03357 10.068 1.07115 9.97653C1.10873 9.88504 1.16473 9.80155 1.23594 9.73083L1.25495 9.71259L5.11674 6.00803Z" fill="white" stroke="white" stroke-width="0.5"/>
</svg>
